<svg width="16" height="16" viewBox="0 0 16 16" fill="none" xmlns="http://www.w3.org/2000/svg">
<rect width="16" height="16" rx="8" fill="white"/>
<path d="M3.83325 4.0415V7.99984C3.83325 8.63178 3.95825 9.21512 4.20825 9.74984C4.45825 10.2846 4.802 10.7429 5.2395 11.1248C5.05895 10.8609 4.91839 10.5711 4.81784 10.2553C4.71728 9.93942 4.66686 9.60428 4.66659 9.24984C4.66659 8.73595 4.77256 8.19942 4.9845 7.64025C5.19645 7.08109 5.54881 6.43359 6.04159 5.69775L3.83325 4.0415ZM7.99992 4.42692C7.07631 5.53803 6.42881 6.4947 6.05742 7.29692C5.68603 8.09914 5.5002 8.75011 5.49992 9.24984C5.49992 9.94428 5.74297 10.5346 6.22909 11.0207C6.7152 11.5068 7.30547 11.7498 7.99992 11.7498C8.69436 11.7498 9.28464 11.5068 9.77075 11.0207C10.2569 10.5346 10.4999 9.94428 10.4999 9.24984C10.4999 8.74984 10.3124 8.09539 9.93742 7.2865C9.56242 6.47762 8.91659 5.5247 7.99992 4.42692ZM12.1666 4.0415L9.95825 5.69775C10.4513 6.43386 10.8038 7.0815 11.0158 7.64067C11.2277 8.19984 11.3335 8.73623 11.3333 9.24984C11.3333 9.604 11.2828 9.93914 11.182 10.2553C11.0812 10.5714 10.9408 10.8612 10.7608 11.1248C11.1983 10.7429 11.542 10.2846 11.792 9.74984C12.042 9.21512 12.1669 8.63178 12.1666 7.99984V4.0415Z" fill="#2563EB"/>
</svg>
