<svg width="61" height="16" viewBox="0 0 61 16" fill="none" xmlns="http://www.w3.org/2000/svg">
<path d="M1.33325 1.6665V7.99984C1.33325 9.01095 1.53325 9.94428 1.93325 10.7998C2.33325 11.6554 2.88325 12.3887 3.58325 12.9998C3.29436 12.5776 3.06947 12.1138 2.90859 11.6085C2.7477 11.1032 2.66703 10.5669 2.66659 9.99984C2.66659 9.17761 2.83614 8.31917 3.17525 7.4245C3.51436 6.52984 4.07814 5.49384 4.86659 4.3165L1.33325 1.6665ZM7.99992 2.28317C6.52214 4.06095 5.48614 5.59161 4.89192 6.87517C4.2977 8.15873 4.00036 9.20028 3.99992 9.99984C3.99992 11.1109 4.38881 12.0554 5.16659 12.8332C5.94436 13.6109 6.88881 13.9998 7.99992 13.9998C9.11103 13.9998 10.0555 13.6109 10.8333 12.8332C11.611 12.0554 11.9999 11.1109 11.9999 9.99984C11.9999 9.19984 11.6999 8.15273 11.0999 6.8585C10.4999 5.56428 9.46659 4.03961 7.99992 2.28317ZM14.6666 1.6665L11.1333 4.3165C11.9221 5.49428 12.4861 6.5305 12.8253 7.42517C13.1644 8.31984 13.3337 9.17806 13.3333 9.99984C13.3333 10.5665 13.2526 11.1027 13.0913 11.6085C12.9299 12.1143 12.7053 12.5781 12.4173 12.9998C13.1173 12.3887 13.6673 11.6554 14.0673 10.7998C14.4673 9.94428 14.667 9.01095 14.6666 7.99984V1.6665Z" fill="#2563EB"/>
<path d="M18.996 12.5V3.56H22.152C22.744 3.56 23.264 3.672 23.712 3.896C24.16 4.12 24.508 4.44 24.756 4.856C25.012 5.272 25.14 5.76 25.14 6.32C25.14 6.952 24.98 7.488 24.66 7.928C24.34 8.368 23.908 8.684 23.364 8.876L25.44 12.5H24.072L21.888 8.624L22.668 9.08H20.172V12.5H18.996ZM20.172 8H22.188C22.54 8 22.848 7.932 23.112 7.796C23.376 7.66 23.58 7.464 23.724 7.208C23.876 6.952 23.952 6.656 23.952 6.32C23.952 5.976 23.876 5.68 23.724 5.432C23.58 5.176 23.376 4.98 23.112 4.844C22.848 4.708 22.54 4.64 22.188 4.64H20.172V8ZM29.258 12.644C28.634 12.644 28.078 12.496 27.59 12.2C27.102 11.904 26.718 11.5 26.438 10.988C26.158 10.468 26.018 9.888 26.018 9.248C26.018 8.6 26.154 8.024 26.426 7.52C26.706 7.016 27.082 6.62 27.554 6.332C28.034 6.036 28.57 5.888 29.162 5.888C29.642 5.888 30.066 5.976 30.434 6.152C30.81 6.32 31.126 6.552 31.382 6.848C31.646 7.136 31.846 7.468 31.982 7.844C32.126 8.212 32.198 8.596 32.198 8.996C32.198 9.084 32.19 9.184 32.174 9.296C32.166 9.4 32.154 9.5 32.138 9.596H26.834V8.636H31.49L30.962 9.068C31.034 8.652 30.994 8.28 30.842 7.952C30.69 7.624 30.466 7.364 30.17 7.172C29.874 6.98 29.538 6.884 29.162 6.884C28.786 6.884 28.442 6.98 28.13 7.172C27.818 7.364 27.574 7.64 27.398 8C27.23 8.352 27.162 8.772 27.194 9.26C27.162 9.732 27.234 10.148 27.41 10.508C27.594 10.86 27.85 11.136 28.178 11.336C28.514 11.528 28.878 11.624 29.27 11.624C29.702 11.624 30.066 11.524 30.362 11.324C30.658 11.124 30.898 10.868 31.082 10.556L32.018 11.036C31.89 11.332 31.69 11.604 31.418 11.852C31.154 12.092 30.838 12.284 30.47 12.428C30.11 12.572 29.706 12.644 29.258 12.644ZM33.7371 9.776V8.756H38.2371V9.776H33.7371ZM40.1718 12.5V3.56H41.3478V11.42H45.2718V12.5H40.1718ZM46.4617 12.5V6.032H47.5777V12.5H46.4617ZM46.4617 5V3.56H47.5777V5H46.4617ZM49.9933 12.5V7.1H48.7573V6.032H49.9933V5.576C49.9933 5.112 50.0933 4.72 50.2933 4.4C50.5013 4.08 50.7733 3.836 51.1093 3.668C51.4533 3.5 51.8333 3.416 52.2493 3.416C52.3373 3.416 52.4333 3.424 52.5373 3.44C52.6493 3.448 52.7413 3.46 52.8133 3.476V4.472C52.7493 4.456 52.6733 4.448 52.5853 4.448C52.4973 4.44 52.4293 4.436 52.3813 4.436C52.0133 4.436 51.7093 4.524 51.4693 4.7C51.2373 4.876 51.1213 5.168 51.1213 5.576V6.032H52.6573V7.1H51.1213V12.5H49.9933ZM56.7502 12.644C56.1262 12.644 55.5702 12.496 55.0822 12.2C54.5942 11.904 54.2102 11.5 53.9302 10.988C53.6502 10.468 53.5102 9.888 53.5102 9.248C53.5102 8.6 53.6462 8.024 53.9182 7.52C54.1982 7.016 54.5742 6.62 55.0462 6.332C55.5262 6.036 56.0622 5.888 56.6542 5.888C57.1342 5.888 57.5582 5.976 57.9262 6.152C58.3022 6.32 58.6182 6.552 58.8742 6.848C59.1382 7.136 59.3382 7.468 59.4742 7.844C59.6182 8.212 59.6902 8.596 59.6902 8.996C59.6902 9.084 59.6822 9.184 59.6662 9.296C59.6582 9.4 59.6462 9.5 59.6302 9.596H54.3262V8.636H58.9822L58.4542 9.068C58.5262 8.652 58.4862 8.28 58.3342 7.952C58.1822 7.624 57.9582 7.364 57.6622 7.172C57.3662 6.98 57.0302 6.884 56.6542 6.884C56.2782 6.884 55.9342 6.98 55.6222 7.172C55.3102 7.364 55.0662 7.64 54.8902 8C54.7222 8.352 54.6542 8.772 54.6862 9.26C54.6542 9.732 54.7262 10.148 54.9022 10.508C55.0862 10.86 55.3422 11.136 55.6702 11.336C56.0062 11.528 56.3702 11.624 56.7622 11.624C57.1942 11.624 57.5582 11.524 57.8542 11.324C58.1502 11.124 58.3902 10.868 58.5742 10.556L59.5102 11.036C59.3822 11.332 59.1822 11.604 58.9102 11.852C58.6462 12.092 58.3302 12.284 57.9622 12.428C57.6022 12.572 57.1982 12.644 56.7502 12.644Z" fill="#2563EB"/>
</svg>
